# Blender v2.74 (sub 0) OBJ File: 'Box.blend'
# www.blender.org
mtllib Box.mtl
o Plane
v -0.968368 2.014811 -0.995243
v 0.968368 2.014811 -0.995243
v -0.968368 0.343344 -1.973580
v 0.968368 0.343344 -1.973580
v 1.000000 0.011600 -1.000000
v 1.000000 0.011600 1.000000
v -1.000000 0.011600 1.000000
v -1.000000 0.011600 -1.000000
v 1.000000 2.011600 -0.999999
v 0.999999 2.011600 1.000000
v -1.000000 2.011600 0.999999
v -1.000000 2.011600 -1.000000
v -0.968649 2.011600 -0.968677
v -0.968656 2.011600 0.968288
v 0.968316 2.011600 0.968290
v 0.968314 2.011600 -0.968683
v 0.968368 2.014811 1.004552
v -0.968368 2.014811 1.004552
v 0.968368 0.343345 1.982888
v -0.968368 0.343345 1.982888
vn 0.000000 0.505100 -0.863000
vn -0.000000 -1.000000 -0.000000
vn -0.000000 1.000000 -0.000000
vn 1.000000 0.000000 0.000000
vn -0.000000 -0.000000 1.000000
vn -1.000000 -0.000000 -0.000000
vn 0.000000 0.000000 -1.000000
vn -0.000000 0.505100 0.863000
usemtl Material
s off
f 1//1 2//1 4//1 3//1
f 5//2 6//2 7//2 8//2
f 12//3 11//3 10//3 15//3 14//3 13//3
f 5//4 9//4 10//4 6//4
f 6//5 10//5 11//5 7//5
f 7//6 11//6 12//6 8//6
f 9//7 5//7 8//7 12//7
f 9//3 12//3 13//3 16//3 15//3 10//3
f 17//8 18//8 20//8 19//8
