# Blender v2.74 (sub 0) OBJ File: 'Table.blend'
# www.blender.org
mtllib Table.mtl
o Cube
v -1.140825 1.245718 1.804496
v -1.140825 1.321980 1.804496
v -1.140825 1.245718 -2.001423
v -1.140825 1.321980 -2.001423
v 1.140825 1.245718 1.804496
v 1.140825 1.321980 1.804496
v 1.140825 1.245718 -2.001423
v 1.140825 1.321980 -2.001423
v 1.053591 0.019656 -1.935636
v 1.053591 0.019656 -0.710854
v -1.053591 0.019656 -0.710854
v -1.053591 0.019656 -1.935636
v 1.053592 1.244438 -1.935635
v 1.053590 1.244438 -0.710854
v -1.053591 1.244438 -0.710854
v -1.053591 1.244438 -1.935636
v 1.053591 1.051634 -1.935636
v 1.053591 1.051634 -0.710854
v -1.053591 1.051634 -0.710854
v -1.053591 1.051634 -1.935636
v 1.053591 0.842565 -1.935636
v 1.053591 0.842565 -0.710854
v -1.053591 0.842565 -0.710854
v -1.053591 0.842565 -1.935636
v 1.053591 0.621231 -1.935636
v 1.053591 0.621231 -0.710854
v -1.053591 0.621231 -0.710854
v -1.053591 0.621231 -1.935636
v 1.053591 0.415841 -1.935636
v 1.053591 0.415841 -0.710854
v -1.053591 0.415841 -0.710854
v -1.053591 0.415841 -1.935636
v 1.053591 0.204752 -1.935636
v 1.053591 0.204752 -0.710854
v -1.053591 0.204752 -0.710854
v -1.053591 0.204752 -1.935636
v -1.077876 0.842565 -0.710854
v -1.077876 1.051634 -0.710854
v -1.077876 0.842565 -1.935636
v -1.077876 1.051634 -1.935636
v -1.076671 0.415841 -0.710854
v -1.076671 0.621231 -0.710854
v -1.076670 0.415841 -1.935636
v -1.076670 0.621231 -1.935636
v -1.077191 0.019656 -0.710854
v -1.077190 0.019656 -1.935636
v -1.077191 0.204752 -0.710854
v -1.077190 0.204752 -1.935636
v 1.071289 0.842565 -1.935636
v 1.071289 1.051634 -1.935636
v 1.071288 0.842565 -0.710854
v 1.071288 1.051634 -0.710854
v 1.085975 0.415841 -1.935636
v 1.085975 0.621231 -1.935636
v 1.085975 0.415841 -0.710854
v 1.085975 0.621231 -0.710854
v 1.077144 0.019656 -1.935636
v 1.077144 0.019656 -0.710854
v 1.077144 0.204752 -1.935636
v 1.077144 0.204752 -0.710854
v 1.053591 0.019656 0.513926
v 1.053591 0.019656 1.738707
v -1.053591 0.019656 1.738707
v -1.053591 0.019656 0.513926
v 1.053592 1.244438 0.513926
v 1.053590 1.244438 1.738708
v -1.053591 1.244438 1.738707
v -1.053591 1.244438 0.513926
v 1.053591 1.051634 0.513926
v 1.053591 1.051634 1.738708
v -1.053591 1.051634 1.738707
v -1.053591 1.051634 0.513926
v 1.053591 0.842565 0.513926
v 1.053591 0.842565 1.738708
v -1.053591 0.842565 1.738707
v -1.053591 0.842565 0.513926
v 1.053591 0.621231 0.513926
v 1.053591 0.621231 1.738708
v -1.053591 0.621231 1.738707
v -1.053591 0.621231 0.513926
v 1.053591 0.415841 0.513926
v 1.053591 0.415841 1.738707
v -1.053591 0.415841 1.738707
v -1.053591 0.415841 0.513926
v 1.053591 0.204752 0.513926
v 1.053591 0.204752 1.738707
v -1.053591 0.204752 1.738707
v -1.053591 0.204752 0.513926
v -1.077876 0.842565 1.738707
v -1.077876 1.051634 1.738707
v -1.077876 0.842565 0.513926
v -1.077876 1.051634 0.513926
v -1.076671 0.415841 1.738707
v -1.076671 0.621231 1.738707
v -1.076670 0.415841 0.513926
v -1.076670 0.621231 0.513926
v -1.077191 0.019656 1.738707
v -1.077190 0.019656 0.513926
v -1.077191 0.204752 1.738707
v -1.077190 0.204752 0.513926
v 1.071289 0.842565 0.513926
v 1.071289 1.051634 0.513926
v 1.071288 0.842565 1.738708
v 1.071288 1.051634 1.738708
v 1.085975 0.415841 0.513926
v 1.085975 0.621231 0.513926
v 1.085975 0.415841 1.738707
v 1.085975 0.621231 1.738708
v 1.077144 0.019656 0.513926
v 1.077144 0.019656 1.738707
v 1.077144 0.204752 0.513926
v 1.077144 0.204752 1.738707
vn -1.000000 0.000000 0.000000
vn 0.000000 0.000000 -1.000000
vn 1.000000 0.000000 0.000000
vn 0.000000 0.000000 1.000000
vn 0.000000 -1.000000 0.000000
vn 0.000000 1.000000 0.000000
usemtl Material
s off
f 2//1 4//1 3//1 1//1
f 4//2 8//2 7//2 3//2
f 8//3 6//3 5//3 7//3
f 6//4 2//4 1//4 5//4
f 1//5 3//5 7//5 5//5
f 6//6 8//6 4//6 2//6
f 9//5 10//5 11//5 12//5
f 13//6 16//6 15//6 14//6
f 17//3 13//3 14//3 18//3
f 18//4 14//4 15//4 19//4
f 19//1 15//1 16//1 20//1
f 33//2 9//2 12//2 36//2
f 13//2 17//2 20//2 16//2
f 24//5 23//5 37//5 39//5
f 22//4 18//4 19//4 23//4
f 22//5 21//5 49//5 51//5
f 25//3 21//3 22//3 26//3
f 26//4 22//4 23//4 27//4
f 27//1 23//1 24//1 28//1
f 17//2 21//2 24//2 20//2
f 32//5 31//5 41//5 43//5
f 30//4 26//4 27//4 31//4
f 30//5 29//5 53//5 55//5
f 21//2 25//2 28//2 24//2
f 33//3 29//3 30//3 34//3
f 34//4 30//4 31//4 35//4
f 35//1 31//1 32//1 36//1
f 25//2 29//2 32//2 28//2
f 35//6 36//6 48//6 47//6
f 10//4 34//4 35//4 11//4
f 33//6 34//6 60//6 59//6
f 29//2 33//2 36//2 32//2
f 37//1 38//1 40//1 39//1
f 19//6 20//6 40//6 38//6
f 20//2 24//2 39//2 40//2
f 23//4 19//4 38//4 37//4
f 41//1 42//1 44//1 43//1
f 27//6 28//6 44//6 42//6
f 28//2 32//2 43//2 44//2
f 31//4 27//4 42//4 41//4
f 45//1 47//1 48//1 46//1
f 36//2 12//2 46//2 48//2
f 11//4 35//4 47//4 45//4
f 12//5 11//5 45//5 46//5
f 49//3 50//3 52//3 51//3
f 17//6 18//6 52//6 50//6
f 18//4 22//4 51//4 52//4
f 21//2 17//2 50//2 49//2
f 53//3 54//3 56//3 55//3
f 25//6 26//6 56//6 54//6
f 26//4 30//4 55//4 56//4
f 29//2 25//2 54//2 53//2
f 57//3 59//3 60//3 58//3
f 34//4 10//4 58//4 60//4
f 9//2 33//2 59//2 57//2
f 10//5 9//5 57//5 58//5
usemtl Material.002
f 61//5 62//5 63//5 64//5
f 65//6 68//6 67//6 66//6
f 69//3 65//3 66//3 70//3
f 70//4 66//4 67//4 71//4
f 71//1 67//1 68//1 72//1
f 85//2 61//2 64//2 88//2
f 65//2 69//2 72//2 68//2
f 76//5 75//5 89//5 91//5
f 74//4 70//4 71//4 75//4
f 74//5 73//5 101//5 103//5
f 77//3 73//3 74//3 78//3
f 78//4 74//4 75//4 79//4
f 79//1 75//1 76//1 80//1
f 69//2 73//2 76//2 72//2
f 84//5 83//5 93//5 95//5
f 82//4 78//4 79//4 83//4
f 82//5 81//5 105//5 107//5
f 73//2 77//2 80//2 76//2
f 85//3 81//3 82//3 86//3
f 86//4 82//4 83//4 87//4
f 87//1 83//1 84//1 88//1
f 77//2 81//2 84//2 80//2
f 87//6 88//6 100//6 99//6
f 62//4 86//4 87//4 63//4
f 85//6 86//6 112//6 111//6
f 81//2 85//2 88//2 84//2
f 89//1 90//1 92//1 91//1
f 71//6 72//6 92//6 90//6
f 72//2 76//2 91//2 92//2
f 75//4 71//4 90//4 89//4
f 93//1 94//1 96//1 95//1
f 79//6 80//6 96//6 94//6
f 80//2 84//2 95//2 96//2
f 83//4 79//4 94//4 93//4
f 97//1 99//1 100//1 98//1
f 88//2 64//2 98//2 100//2
f 63//4 87//4 99//4 97//4
f 64//5 63//5 97//5 98//5
f 101//3 102//3 104//3 103//3
f 69//6 70//6 104//6 102//6
f 70//4 74//4 103//4 104//4
f 73//2 69//2 102//2 101//2
f 105//3 106//3 108//3 107//3
f 77//6 78//6 108//6 106//6
f 78//4 82//4 107//4 108//4
f 81//2 77//2 106//2 105//2
f 109//3 111//3 112//3 110//3
f 86//4 62//4 110//4 112//4
f 61//2 85//2 111//2 109//2
f 62//5 61//5 109//5 110//5
